<?xml version="1.0" encoding="UTF-8" standalone="no"?>
<!-- Created with Inkscape (http://www.inkscape.org/) -->

<svg
   xmlns:dc="http://purl.org/dc/elements/1.1/"
   xmlns:cc="http://creativecommons.org/ns#"
   xmlns:rdf="http://www.w3.org/1999/02/22-rdf-syntax-ns#"
   xmlns:svg="http://www.w3.org/2000/svg"
   xmlns="http://www.w3.org/2000/svg"
   xmlns:sodipodi="http://sodipodi.sourceforge.net/DTD/sodipodi-0.dtd"
   xmlns:inkscape="http://www.inkscape.org/namespaces/inkscape"
   width="600"
   height="200"
   viewBox="0 0 158.74999 52.916668"
   version="1.1"
   id="svg22"
   inkscape:version="0.92.3 (2405546, 2018-03-11)"
   sodipodi:docname="darkt_green.svg">
  <defs
     id="defs16" />
  <sodipodi:namedview
     id="base"
     pagecolor="#ffffff"
     bordercolor="#666666"
     borderopacity="1.0"
     inkscape:pageopacity="0.0"
     inkscape:pageshadow="2"
     inkscape:zoom="1.979899"
     inkscape:cx="330.87251"
     inkscape:cy="-12.501004"
     inkscape:document-units="mm"
     inkscape:current-layer="g4588"
     showgrid="false"
     units="px"
     inkscape:window-width="1920"
     inkscape:window-height="1051"
     inkscape:window-x="-9"
     inkscape:window-y="-9"
     inkscape:window-maximized="1" />
  <metadata
     id="metadata19">
    <rdf:RDF>
      <cc:Work
         rdf:about="">
        <dc:format>image/svg+xml</dc:format>
        <dc:type
           rdf:resource="http://purl.org/dc/dcmitype/StillImage" />
        <dc:title></dc:title>
      </cc:Work>
    </rdf:RDF>
  </metadata>
  <g
     inkscape:label="Layer 1"
     inkscape:groupmode="layer"
     id="layer1"
     transform="translate(0,-244.08332)">
    <g
       id="g4588">
      <path
         style="fill:#188f3c;fill-opacity:1;stroke-width:0.13363476"
         d="m 64.694736,326.34801 c 0.02569,-0.0291 0.352036,-0.11019 0.725236,-0.18005 0.373192,-0.0699 0.817749,-0.16943 0.987902,-0.22117 0.170149,-0.0518 0.486941,-0.137 0.70398,-0.18947 2.498284,-0.60398 6.620148,-2.63584 9.225194,-4.54751 2.57862,-1.89229 4.991987,-4.38116 7.039533,-7.25978 0.643973,-0.90535 1.214242,-1.66963 1.267262,-1.6984 0.05302,-0.0288 0.09083,-0.12286 0.08401,-0.20909 -0.0068,-0.0862 0.124699,-0.33027 0.292259,-0.54229 0.167559,-0.21203 0.299707,-0.44807 0.293662,-0.52454 -0.006,-0.0765 0.04895,-0.14377 0.122228,-0.14956 0.07327,-0.006 0.127898,-0.0778 0.12139,-0.16015 -0.0065,-0.0822 0.229796,-0.55187 0.525111,-1.04353 l 0.536936,-0.89393 0.671274,0.40613 c 0.369201,0.22337 0.833183,0.53203 1.031071,0.68593 0.197891,0.15388 0.82893,0.54431 1.402315,0.86763 0.573381,0.32331 1.074857,0.61545 1.114389,0.64919 0.03953,0.0337 0.353136,0.18541 0.696905,0.33706 0.343764,0.15164 0.657725,0.3078 0.69769,0.347 0.08931,0.0876 1.856888,0.79407 2.422448,0.96819 2.56159,0.78864 5.485939,1.42063 6.819079,1.47369 0.29585,0.0117 0.61878,0.0427 0.71764,0.0687 0.95242,0.25047 6.57737,-0.19043 8.55142,-0.67 0.10851,-0.0264 0.5216,-0.14242 0.91797,-0.25788 0.39638,-0.1155 0.86841,-0.24905 1.04895,-0.29686 0.65507,-0.17348 3.00331,-1.13869 4.10352,-1.68667 1.45977,-0.72708 3.60172,-2.05285 4.69491,-2.90593 0.4752,-0.37084 0.88795,-0.67614 0.91722,-0.67846 0.0293,-0.002 0.17953,-0.12898 0.33393,-0.28148 0.15439,-0.15251 0.73033,-0.69442 1.27985,-1.20424 0.54952,-0.50982 1.55134,-1.57513 2.22625,-2.36735 0.67493,-0.79221 1.04282,-1.20535 0.81753,-0.91807 l -0.40961,0.52231 0.33993,0.18621 c 1.12565,0.61664 5.68995,2.00278 6.90392,2.09668 0.0357,0.003 0.50988,0.0844 1.05384,0.18135 1.55024,0.2764 3.17405,0.28659 6.34032,0.0398 2.42476,-0.18868 3.96689,-0.41859 4.90222,-0.72983 0.0718,-0.0239 0.36678,-0.10844 0.6554,-0.18789 1.00426,-0.27638 3.23817,-1.11305 3.90591,-1.46288 0.14159,-0.0742 0.63462,-0.32362 1.09562,-0.55432 1.21191,-0.60648 2.4076,-1.31799 3.16256,-1.88195 0.36215,-0.27052 0.69649,-0.49487 0.74299,-0.49855 0.1339,-0.0106 1.16142,-0.88038 2.38238,-2.01672 1.09067,-1.01505 4.12413,-4.54263 4.72649,-5.49637 0.16381,-0.25938 0.40839,-0.64031 0.54351,-0.84651 0.84846,-1.29474 2.34852,-4.57583 2.96635,-6.48825 0.28081,-0.86922 0.85737,-3.44868 1.04191,-4.66134 0.40052,-2.63211 0.40405,-3.189 0.0452,-7.15413 -0.28717,-3.1732 -0.38288,-3.8256 -0.71904,-4.90306 -0.21328,-0.68356 -0.42137,-1.36083 -0.46242,-1.50504 -0.18958,-0.66587 -1.14324,-2.97156 -1.64481,-3.97668 -2.68866,-5.38789 -6.62483,-9.60069 -11.66069,-12.48022 -2.59785,-1.48545 -5.54128,-2.58499 -8.63319,-3.225 -3.06854,-0.63515 -4.43591,-0.69968 -8.14049,-0.38407 -3.42645,0.29194 -4.34368,0.47337 -6.73135,1.33173 -2.70214,0.9714 -5.13824,2.17165 -6.77388,3.33744 -0.34898,0.24872 -0.84344,0.58916 -1.0988,0.75651 -0.57607,0.37756 -2.36978,1.94978 -3.1162,2.73139 -1.07048,1.12098 -1.97127,2.19549 -1.96,2.33802 0.006,0.079 0.23144,0.25676 0.50041,0.39497 0.26897,0.13822 0.49142,0.28128 0.49432,0.31792 0.003,0.0367 -0.199,-0.0373 -0.44868,-0.16447 -1.19213,-0.60688 -5.41383,-2.18964 -6.11296,-2.29182 -0.0746,-0.011 -0.59584,-0.11844 -1.15833,-0.23896 -0.56249,-0.12054 -1.03638,-0.2161 -1.05306,-0.21238 -0.0167,0.003 -0.41328,-0.053 -0.88129,-0.12595 -0.88996,-0.13882 -0.9564,-0.1445 -2.80317,-0.2398 -1.33195,-0.0687 -4.86749,0.14923 -5.755359,0.35478 -0.33618,0.0778 -0.97759,0.20352 -1.42537,0.27929 -0.44777,0.0758 -0.8566,0.1689 -0.90852,0.20694 -0.0519,0.038 -0.32912,0.11961 -0.61603,0.18115 -0.28691,0.0616 -0.94848,0.26323 -1.47018,0.4481 -0.52169,0.18486 -0.96193,0.33891 -0.97832,0.34234 -0.0957,0.02 -0.56976,0.22367 -1.779566,0.76437 -1.129335,0.50474 -4.791847,2.60736 -5.001046,2.87107 -0.03352,0.0423 -0.45829,0.39212 -0.943924,0.77748 -0.974422,0.77322 -2.278882,1.97293 -3.284271,3.02051 -0.359749,0.37484 -0.687135,0.67228 -0.727524,0.66096 -0.04039,-0.0114 -0.266571,-0.23472 -0.502632,-0.49648 -0.23606,-0.26174 -0.482105,-0.53204 -0.546771,-0.60064 -0.06467,-0.0686 -0.4016,-0.43409 -0.74874,-0.81215 -5.85209,-6.37334 -12.786461,-9.83024 -20.669494,-10.30407 -2.095704,-0.12598 -6.159477,0.29376 -7.778508,0.80341 -0.215808,0.0679 -0.570367,0.16136 -0.787898,0.20762 -0.217519,0.0463 -0.482787,0.12453 -0.589465,0.17407 -0.106684,0.0495 -0.371056,0.13905 -0.587502,0.19903 -0.436013,0.12084 -0.562846,0.1659 -0.847529,0.3012 -0.212847,0.10119 -1.971129,0.83712 -2.076124,0.86899 -0.03596,0.0109 -0.41205,0.21395 -0.835674,0.45116 -0.423614,0.2372 -0.878635,0.46261 -1.011159,0.50091 -0.132527,0.0383 -0.420987,0.2047 -0.641031,0.36978 -0.220034,0.1651 -0.658295,0.46751 -0.973909,0.67202 -1.947293,1.26184 -4.461929,3.51535 -6.301245,5.6469 -1.051553,1.21863 -1.476423,1.77392 -2.754308,3.59986 -0.312024,0.44585 -1.936566,3.24035 -2.043746,3.51563 -0.04377,0.11253 -0.20035,0.45544 -0.347859,0.76201 -0.423403,0.88003 -1.478493,3.52572 -1.755126,4.40109 -0.13851,0.43829 -0.315508,0.85883 -0.393334,0.93454 -0.09662,0.094 -0.567915,-0.19464 -1.485754,-0.90985 -0.739333,-0.57612 -1.790559,-1.35175 -2.336061,-1.72361 -0.545493,-0.37186 -1.024433,-0.70724 -1.064305,-0.74529 -0.03993,-0.0381 -0.669807,-0.37576 -1.399848,-0.75047 -0.73004,-0.3747 -1.484543,-0.76205 -1.676669,-0.86075 -0.348358,-0.17898 -1.949454,-0.83343 -2.07792,-0.84937 -0.03732,-0.005 -0.531925,-0.15786 -1.099326,-0.34053 -1.331473,-0.42866 -1.559766,-0.49976 -1.683587,-0.52432 -0.05615,-0.0111 -0.133307,-0.0329 -0.171375,-0.0482 -0.07689,-0.0311 -0.07923,-0.0315 -0.747702,-0.13179 -0.261147,-0.0391 -0.537624,-0.10268 -0.614396,-0.14117 -0.149984,-0.0752 -0.1974,-0.0842 -0.816653,-0.15611 -0.223234,-0.0259 -0.8322,-0.0985 -1.35327,-0.1613 -3.330783,-0.40153 -7.3046832,-0.0843 -11.1896983,0.89362 -0.1445804,0.0364 -0.688294,0.21694 -1.208256,0.40125 -0.51996199,0.18431 -0.94822609,0.29912 -0.95170319,0.25514 -0.00348,-0.044 -0.072606,-0.002 -0.1535487,0.0925 -0.080975,0.0949 -0.2277822,0.17887 -0.326235,0.18665 -0.5738796,0.0454 -4.67063641,2.24343 -6.10736521,3.27682 -0.5547393,0.39902 -2.5250825,2.01122 -2.7487866,2.24916 -0.1123238,0.11947 -0.4162129,0.41495 -0.6753131,0.65662 -0.6736389,0.62831 -2.8902389,3.22986 -3.3086399,3.88323 -0.194553,0.30381 -0.438239,0.65506 -0.54152,0.78055 -0.103292,0.12549 -0.371774,0.54096 -0.596655,0.92327 -0.224861,0.38229 -0.454635,0.71882 -0.510604,0.74781 -0.05599,0.029 -0.09811,0.0986 -0.09367,0.15483 0.0044,0.0561 -0.287677,0.69254 -0.64915,1.41418 -1.257766,2.51098 -2.173479,5.36049 -2.682966,8.34886 -0.524775,3.07793 -0.53055,3.26882 -0.218503,7.21606 0.287137,3.63216 0.312897,3.78671 1.014899,6.08771 1.711463,5.60982 4.838855,10.44021 9.1646969,14.15527 0.8700844,0.74724 1.8041559,1.49838 2.0757126,1.6692 0.2715467,0.17082 0.6233223,0.41206 0.781709,0.53608 0.1583859,0.12402 0.7603721,0.48976 1.3377431,0.81277 0.5773703,0.32299 1.0733084,0.63064 1.1020669,0.68367 0.028766,0.053 0.1045965,0.0923 0.1685569,0.0872 0.064,-0.005 0.4170265,0.13716 0.7846161,0.31603 0.9349826,0.45496 2.47674311,1.08326 3.3219828,1.3538 0.8238321,0.26367 1.4856041,0.46002 1.4840453,0.4403 -6.304e-4,-0.008 0.3684986,0.083 0.8202144,0.20117 0.856621,0.22405 3.266429,0.6517 3.911023,0.69407 0.20502,0.0135 0.872173,0.059 1.482566,0.10119 1.234584,0.0853 5.063352,-0.18381 6.696721,-0.47072 1.222923,-0.21483 1.221652,-0.21454 2.172983,-0.49165 0.39638,-0.11549 0.86838,-0.24934 1.048895,-0.29751 0.680012,-0.1815 2.587473,-0.96328 3.88009,-1.59029 4.446581,-2.15687 8.430402,-5.57211 11.209692,-9.60981 1.161798,-1.68783 1.473989,-2.1468 1.60724,-2.36293 0.112019,-0.1817 0.174699,-0.15639 0.419118,0.1692 3.039453,4.04906 6.692612,7.30489 10.755216,9.58548 1.660337,0.93204 5.016615,2.34025 5.973696,2.50641 0.05573,0.01 0.425511,0.10897 0.821756,0.22066 0.737753,0.20796 2.522294,0.58027 3.067659,0.64001 1.048373,0.11487 2.056469,0.19977 2.462553,0.20739 0.751939,0.0141 5.570504,-0.25061 5.621889,-0.30886 z m 62.845074,-23.85392 c -0.002,-0.0239 0.14994,-0.20176 0.3374,-0.39532 l 0.34081,-0.35192 -0.294,0.39188 c -0.27479,0.36627 -0.37595,0.45984 -0.38421,0.35536 z m 0.60236,-0.85888 c -0.002,-0.0277 0.0944,-0.14087 0.2147,-0.25156 0.1982,-0.18242 0.20328,-0.17808 0.0543,0.0464 -0.15648,0.23567 -0.2603,0.31488 -0.26897,0.20525 z m 0.35754,-0.56447 c -0.002,-0.0277 0.0944,-0.14087 0.2147,-0.25156 0.19819,-0.18242 0.20328,-0.17808 0.0543,0.0464 -0.15649,0.23567 -0.26031,0.31488 -0.26898,0.20525 z m 0.78209,-1.28471 c 0.10555,-0.19267 0.21851,-0.3524 0.25105,-0.35497 0.0653,-0.005 -0.0412,0.24609 -0.22058,0.52012 -0.20593,0.31473 -0.22796,0.19536 -0.0305,-0.16515 z m 3.63251,-11.23752 c 0.0342,-0.10963 0.0682,-0.0805 0.0868,0.0741 0.0171,0.13996 -0.008,0.22115 -0.0562,0.18038 -0.0478,-0.0408 -0.0615,-0.15529 -0.0307,-0.25451 z m 0.18903,-2.69597 c 0.0342,-0.10964 0.0682,-0.0805 0.0868,0.0741 0.0171,0.13996 -0.008,0.22115 -0.0562,0.18038 -0.0478,-0.0408 -0.0616,-0.1553 -0.0307,-0.25451 z m -0.18076,-3.88159 c -0.0167,-0.53321 0.0383,-0.10024 0.12231,0.96221 0.084,1.06242 0.0977,1.49868 0.0304,0.96947 -0.0673,-0.52921 -0.13604,-1.39846 -0.15271,-1.93168 z m -0.29104,-2.12182 c 0.0297,-0.0945 0.0659,-0.022 0.0804,0.16121 0.0145,0.18318 -0.01,0.2605 -0.054,0.17184 -0.0442,-0.0887 -0.0561,-0.23854 -0.0263,-0.33305 z m -0.42653,-1.96868 c 0.0342,-0.10963 0.0682,-0.0805 0.0868,0.0741 0.0171,0.13996 -0.008,0.22115 -0.0562,0.18038 -0.0478,-0.0408 -0.0615,-0.15529 -0.0306,-0.25451 z m -0.18588,-0.65556 c 0.0342,-0.10964 0.0682,-0.0805 0.0868,0.0741 0.0171,0.13996 -0.008,0.22115 -0.0562,0.18038 -0.0478,-0.0408 -0.0615,-0.1553 -0.0306,-0.25451 z m -0.18587,-0.65557 c 0.0342,-0.10963 0.0682,-0.0805 0.0868,0.0741 0.0171,0.13996 -0.008,0.22115 -0.0562,0.18039 -0.0478,-0.0408 -0.0615,-0.15531 -0.0307,-0.25452 z m -0.18587,-0.65556 c 0.0342,-0.10963 0.0682,-0.0805 0.0868,0.0741 0.0171,0.13996 -0.008,0.22115 -0.0562,0.18038 -0.0478,-0.0408 -0.0615,-0.1553 -0.0307,-0.25451 z m -0.51551,-1.43381 c 0.0342,-0.10964 0.0682,-0.0805 0.0868,0.0741 0.0171,0.13996 -0.008,0.22115 -0.0562,0.18037 -0.0478,-0.0408 -0.0615,-0.1553 -0.0307,-0.2545 z"
         id="path4592"
         inkscape:connector-curvature="0" />
      <ellipse
         style="fill:#000000;fill-opacity:0;stroke-width:0.26458332"
         id="path4594"
         cx="138.84651"
         cy="286.97739"
         rx="28.464207"
         ry="22.45064" />
      <ellipse
         style="fill:#000000;fill-opacity:0;stroke-width:0.26458332"
         id="path4596"
         cx="125.81712"
         cy="283.43607"
         rx="10.356693"
         ry="24.388344" />
      <ellipse
         style="fill:#000000;fill-opacity:0;stroke-width:0.26458332"
         id="path4598"
         cx="142.9892"
         cy="322.59103"
         rx="19.644312"
         ry="8.7530775" />
    </g>
  </g>
</svg>
